<?xml version="1.0" encoding="utf-8"?>
<?xml-stylesheet type="text/xsl" href="rss1.xsl"?>
<rss version="2.0" xmlns:atom="http://www.w3.org/2005/Atom" xmlns:content="http://purl.org/rss/1.0/modules/content/" xmlns:dc="http://purl.org/dc/elements/1.1/" xmlns:media="http://search.yahoo.com/mrss/">
<channel>
 <title>Getty</title>
 <link>http://www.gettyimg.com/</link>
 <atom:link href="http://www.gettyimg.com/" rel="self" type="application/rss+xml" />

 
                <item>
                <title><![CDATA[【Singles (lossless)】FLAC - James Arthur - Just Us |Qobuz 24bit/44.1kHz|]]></title>
                <link><![CDATA[https://sharemania.us/threads/james-arthur-just-us-qobuz-24bit-44-1khz.229888/]]></link>
                <description><![CDATA[<article>
<blockquote class="messageText SelectQuoteContainer ugc baseHtml">
<div style="text-align: center"><br>
<img src="https://i.imgur.com/sgRVy3o.png" class="bbCodeImage LbImage" alt="[​IMG]" data-url="https://i.imgur.com/sgRVy3o.png" style=""><br>
<br>
<img src="https://i.imgur.com/qbrHsue.png" class="bbCodeImage LbImage" alt="[​IMG]" data-url="https://i.imgur.com/qbrHsue.png" style=""><br>
<br>
<div class="bbCodeBlock bbCodeVfcHH HiddenContent">
<div class="attribution type">Hidden Content:</div>
<blockquote>You must reply before you can see the hidden data contained here.</blockquote>
</div></div>
<div class="messageTextEndMarker">&nbsp;</div>
</blockquote>
</article>]]></description>
                <author><![CDATA[fstambuk]]></author>
                </item>

                
                <item>
                <title><![CDATA[【Albums (lossless)】FLAC - Colbie Caillat - Along The Way | Qobuz Hi-Res 24bit / 44.1kHz]]></title>
                <link><![CDATA[https://sharemania.us/threads/colbie-caillat-along-the-way-qobuz-hi-res-24bit-44-1khz.229887/]]></link>
                <description><![CDATA[<article>
<blockquote class="messageText SelectQuoteContainer ugc baseHtml">
<div style="text-align: center"><img src="https://static.qobuz.com/images/covers/4b/0p/sa2s08dho0p4b_600.jpg" class="bbCodeImage LbImage" alt="[​IMG]" data-url="https://static.qobuz.com/images/covers/4b/0p/sa2s08dho0p4b_600.jpg" style=""><br>
<span style="font-size: 15px"><b>Colbie Caillat – Along The Way</b></span><br>
<br>
<b>Label/Cat#:</b> Blue Jean Baby Records<br>
<b>Year:</b> 2023-10-06<br>
<b>Genre:</b> Country<br>
<br>
<span style="font-size: 12px"><b>Tracklist</b></span><br>
<b>1.</b> Wide Open <i>(03:09)</i><br>
<b>2.</b> Pretend <i>(03:51)</i><br>
<b>3.</b> Worth It <i>(03:15)</i><br>
<b>4.</b> Sometimes You Need a Change <i>(02:57)</i><br>
<b>5.</b> For Someone <i>(03:08)</i><br>
<b>6.</b> Meant For Me <i>(03:15)</i><br>
<b>7.</b> Still Gonna Miss You <i>(03:48)</i><br>
<b>8.</b> I'll Be Here <i>(04:07)</i><br>
<b>9.</b> Buying Time <i>(03:44)</i><br>
<b>10.</b> Blue <i>(03:48)</i><br>
<b>11.</b> Two Birds <i>(03:23)</i><br>
<b>12.</b> Old and New <i>(05:13)</i><br>
<b>13.</b> The Other Side <i>(02:59)</i><br>
<br>
<b>Total length:</b> 46:37<br>
<div class="bbCodeBlock bbCodeVfcHH HiddenContent">
<div class="attribution type">Hidden Content:</div>
<blockquote>You must reply before you can see the hidden data contained here.</blockquote>
</div></div>
<div class="messageTextEndMarker">&nbsp;</div>
</blockquote>
</article>]]></description>
                <author><![CDATA[Yennefer]]></author>
                </item>

                
                <item>
                <title><![CDATA[【Apple Music】WEB-RiP - James Arthur - Just Us |Apple Music Web 1080|]]></title>
                <link><![CDATA[https://sharemania.us/threads/james-arthur-just-us-apple-music-web-1080.229889/]]></link>
                <description><![CDATA[<article>
<blockquote class="messageText SelectQuoteContainer ugc baseHtml">
<div style="text-align: center"><img src="https://i.imgur.com/USbKpvd.gif" class="bbCodeImage LbImage" alt="[​IMG]" data-url="https://i.imgur.com/USbKpvd.gif" style=""><br>
​</div>
<div class="ToggleTriggerAnchor bbCodeSpoilerContainer">
<button type="button" class="button bbCodeSpoilerButton ToggleTrigger Tooltip JsOnly" data-target="> .SpoilerTarget"><span>Spoiler: <span class="SpoilerTitle">Apple Music</span></span></button>
<div class="SpoilerTarget bbCodeSpoilerText">
<div class="bbCodeBlock bbCodeCode">
<div class="type">Code:</div>
<pre>Format                                   : MPEG-4
Format profile                           : Base Media
Codec ID                                 : isom (isom/iso2/avc1/mp41)
File size                                : 177 MiB
Duration                                 : 3 min 32 s
Overall bit rate                         : 7 008 kb/s
Movie name                               : Just Us
Performer                                : James Arthur
Genre                                    : Pop
ContentType                              : Music Video
Recorded date                            : 2023-10-08
ISRC                                     : DEC692301273

Video
ID                                       : 1
Format                                   : AVC
Format/Info                              : Advanced Video Codec
Format profile                           : High@L4
Format settings                          : CABAC / 5 Ref Frames
Format settings, CABAC                   : Yes
Format settings, Reference frames        : 5 frames
Codec ID                                 : avc1
Codec ID/Info                            : Advanced Video Coding
Duration                                 : 3 min 32 s
Bit rate                                 : 6 733 kb/s
Width                                    : 1 920 pixels
Height                                   : 698 pixels
Display aspect ratio                     : 2.751
Frame rate mode                          : Constant
Frame rate                               : 23.976 (24000/1001) FPS
Color space                              : YUV
Chroma subsampling                       : 4:2:0
Bit depth                                : 8 bits
Scan type                                : Progressive
Bits/(Pixel*Frame)                       : 0.210
Stream size                              : 170 MiB (96%)
Title                                    : Core Media Video
Color range                              : Limited
Color primaries                          : BT.709
Transfer characteristics                 : BT.709
Matrix coefficients                      : BT.709
Codec configuration box                  : avcC

Audio
ID                                       : 2
Format                                   : AAC LC
Format/Info                              : Advanced Audio Codec Low Complexity
Codec ID                                 : mp4a-40-2
Duration                                 : 3 min 32 s
Bit rate mode                            : Constant
Bit rate                                 : 265 kb/s
Channel(s)                               : 2 channels
Channel layout                           : L R
Sampling rate                            : 48.0 kHz
Frame rate                               : 46.875 FPS (1024 SPF)
Compression mode                         : Lossy
Stream size                              : 6.68 MiB (4%)
Title                                    : Core Media Audio
Default                                  : Yes
Alternate group                          : 1</pre>
</div><div style="text-align: center">​</div></div>
</div><div style="text-align: center"><br>
<br>
<div class="bbCodeBlock bbCodeVfcHH HiddenContent">
<div class="attribution type">Hidden Content:</div>
<blockquote>You must reply before you can see the hidden data contained here.</blockquote>
</div></div>
<div class="messageTextEndMarker">&nbsp;</div>
</blockquote>
</article>]]></description>
                <author><![CDATA[fstambuk]]></author>
                </item>

                </channel></rss>